<!-- Exported by Character Map UWP -->
<svg height="100%" viewBox="0 0 1024 1024" width="100%" xmlns="http://www.w3.org/2000/svg" xmlns:xlink="http://www.w3.org/1999/xlink">
  <path d="M0,512C0,464.667 6.08333,419.167 18.25,375.5C30.4167,331.833 47.5833,291.083 69.75,253.25C91.9167,215.417 118.583,180.917 149.75,149.75C180.917,118.583 215.417,91.9167 253.25,69.75C291.083,47.5834 331.833,30.4167 375.5,18.25C419.167,6.08337 464.667,0 512,0C559,0 604.333,6.08337 648,18.25C691.667,30.4167 732.5,47.5834 770.5,69.75C808.5,91.9167 843.083,118.583 874.25,149.75C905.417,180.917 932.083,215.5 954.25,253.5C976.417,291.5 993.583,332.333 1005.75,376C1017.92,419.667 1024,465 1024,512C1024,559.333 1017.92,604.833 1005.75,648.5C993.583,692.167 976.417,732.917 954.25,770.75C932.083,808.583 905.417,843.083 874.25,874.25C843.083,905.417 808.583,932.083 770.75,954.25C732.917,976.417 692.167,993.583 648.5,1005.75C604.833,1017.92 559.333,1024 512,1024C464.667,1024 419.167,1017.92 375.5,1005.75C331.833,993.583 291,976.417 253,954.25C215,932.083 180.5,905.5 149.5,874.5C118.5,843.5 91.9167,809 69.75,771C47.5833,733 30.4167,692.167 18.25,648.5C6.08333,604.833 0,559.333 0,512Z" fill="#F03B5E" fill-opacity="1">
  </path>
</svg>