<!-- Exported by Character Map UWP -->
<svg height="100%" viewBox="64 64 896 896" width="100%" xmlns="http://www.w3.org/2000/svg" xmlns:xlink="http://www.w3.org/1999/xlink">
  <path d="M960,416C960,448.333 955.833,479.5 947.5,509.5C939.167,539.5 927.333,567.583 912,593.75C896.667,619.917 878.333,643.667 857,665C835.667,686.333 811.917,704.667 785.75,720C759.583,735.333 731.5,747.167 701.5,755.5C671.5,763.833 640.333,768 608,768C566.667,768 526.583,761 487.75,747C448.917,733 413.833,712.833 382.5,686.5L118.5,950.5C112.167,956.833 104.667,960 96,960C87.3333,960 79.8333,956.833 73.5,950.5C67.1667,944.167 64,936.667 64,928C64,919.333 67.1667,911.833 73.5,905.5L337.5,641.5C311.167,610.167 291,575.083 277,536.25C263,497.417 256,457.333 256,416C256,383.667 260.167,352.417 268.5,322.25C276.833,292.083 288.667,264 304,238C319.333,212 337.667,188.333 359,167C380.333,145.667 404,127.333 430,112C456,96.6667 484,84.8334 514,76.5C544,68.1667 575.333,64.0001 608,64C640.333,64.0001 671.5,68.1667 701.5,76.5C731.5,84.8334 759.583,96.6667 785.75,112C811.917,127.333 835.667,145.667 857,167C878.333,188.333 896.667,212.083 912,238.25C927.333,264.417 939.167,292.5 947.5,322.5C955.833,352.5 960,383.667 960,416ZM896,416C896,376.333 888.417,339 873.25,304C858.083,269 837.5,238.5 811.5,212.5C785.5,186.5 755,165.917 720,150.75C685,135.583 647.667,128 608,128C568.333,128 531,135.583 496,150.75C461,165.917 430.5,186.5 404.5,212.5C378.5,238.5 357.917,269 342.75,304C327.583,339 320,376.333 320,416C320,456 327.5,493.5 342.5,528.5C357.5,563.5 378,594 404,620C430,646 460.5,666.5 495.5,681.5C530.5,696.5 568,704 608,704C648,704 685.5,696.5 720.5,681.5C755.5,666.5 786,646 812,620C838,594 858.5,563.5 873.5,528.5C888.5,493.5 896,456 896,416Z" fill="#FFFFFF" fill-opacity="1">
  </path>
</svg>